<svg width="0" height="0" class="hidden">
  <symbol  xmlns="http://www.w3.org/2000/svg" viewBox="0 0 19 19" id="search">
    <path fill-rule="evenodd" clip-rule="evenodd" d="M17.9 16.486l-3.58-3.58a8 8 0 10-1.415 1.413l3.58 3.58a1 1 0 101.416-1.413zM13.198 11A6 6 0 112.804 5a6 6 0 0110.393 6z" ></path>
  </symbol>
  
  <symbol  xmlns="http://www.w3.org/2000/svg" viewBox="0 0 27 20" id="video">
    <path fill-rule="evenodd" clip-rule="evenodd" d="M22.208 2.868L18.41 5.682v-3.18C18.41 1.119 17.31 0 15.955 0h-13.5C1.095 0 0 1.12 0 2.503v14.994C0 18.882 1.099 20 2.454 20h13.501c1.358 0 2.454-1.12 2.454-2.503v-3.179l3.8 2.814a2.19 2.19 0 001.111.368h2.45c.686 0 1.23-.561 1.23-1.253V3.753c0-.692-.551-1.253-1.23-1.253h-2.45a2.16 2.16 0 00-1.112.368zM2.455 17.5v-15h13.5v15h-13.5zm2.454-3.75c0-.69.55-1.25 1.231-1.25h6.13c.679 0 1.23.555 1.23 1.25 0 .69-.55 1.25-1.23 1.25H6.14c-.68 0-1.23-.555-1.23-1.25zM23.511 15l-5.087-3.762V8.762l5.083-3.765 1.038.001v10L23.512 15z" >
    </path>
  </symbol>

  <symbol  xmlns="http://www.w3.org/2000/svg" viewBox="0 0 30 34" id="notification">
    <g filter="url(#filter0_d)">
      <path  fill-rule="evenodd" clip-rule="evenodd" d="M7.67 22.454C5.643 22.454 4 20.866 4 18.91c0-1.298.727-2.456 1.838-3.074l-.005-4.61c0-4.083 2.836-7.521 6.723-8.548v-.313C12.556 1.058 13.65 0 15 0c1.35 0 2.444 1.058 2.444 2.364v.313c3.888 1.026 6.723 4.465 6.723 8.555v4.613C25.279 16.466 26 17.62 26 18.91c0 1.96-1.641 3.546-3.67 3.546h-3.663C18.665 24.412 17.02 26 15 26c-2.025 0-3.667-1.586-3.667-3.543l-3.664-.003zm6.108 0c0 .654.546 1.182 1.222 1.182.67 0 1.22-.53 1.222-1.181h-2.444zm7.944-11.222v5.71c0 .328.27.661.596.743l.32.08c.535.133.918.604.918 1.144 0 .653-.547 1.182-1.225 1.182H7.669c-.675 0-1.225-.531-1.225-1.182 0-.542.381-1.011.916-1.144l.332-.083a.803.803 0 00.586-.74v-5.716c0-3.59 3.009-6.499 6.722-6.499 3.715 0 6.722 2.908 6.722 6.505z" ></path>
    </g>
    <defs>
      <filter id="filter0_d" x="0" y="0" width="30" height="34" filterUnits="userSpaceOnUse" color-interpolation-filters="sRGB">
        <feFlood flood-opacity="0" result="BackgroundImageFix"></feFlood>
        <feColorMatrix in="SourceAlpha" values="0 0 0 0 0 0 0 0 0 0 0 0 0 0 0 0 0 0 127 0"></feColorMatrix>
        <feOffset dy="4"></feOffset>
        <feGaussianBlur stdDeviation="2"></feGaussianBlur>
        <feColorMatrix values="0 0 0 0 0 0 0 0 0 0 0 0 0 0 0 0 0 0 0.25 0"></feColorMatrix>
        <feBlend in2="BackgroundImageFix" result="effect1_dropShadow"></feBlend>
        <feBlend in="SourceGraphic" in2="effect1_dropShadow" result="shape"></feBlend>
      </filter>
    </defs>
  </symbol>

   

</svg>
